<svg width="193" height="32" viewBox="0 0 193 32" fill="none" xmlns="http://www.w3.org/2000/svg">
<g clip-path="url(#clip0_8303_1375)">
<path d="M14.5177 19.6502C7.2358 22.1969 2.50637 26.7997 0 29.6851C2.13608 28.7551 15.4823 22.9686 19.342 22.6769C19.9297 22.6324 21.3331 22.5265 21.9222 23.327C22.307 23.8502 22.2015 24.567 22.0197 25.2628C21.7377 26.3471 20.9892 28.4791 18.6976 31.2324C19.5423 30.4424 28.6243 21.862 26.7083 18.8236C24.9701 16.065 15.1555 19.4279 14.5177 19.6515V19.6502Z" fill="#5271FF"/>
<path d="M13.8224 13.743C13.2347 13.7875 11.8313 13.8934 11.2423 13.093C10.8575 12.5698 10.9629 11.853 11.1448 11.1571C11.4268 10.0728 12.1753 7.94081 14.4668 5.1875C13.6221 5.97752 4.54018 14.5579 6.45619 17.5964C8.19431 20.3549 18.009 16.9921 18.6467 16.7684C25.9287 14.2218 30.6581 9.61895 33.1645 6.73485C31.0284 7.66482 17.6822 13.4514 13.8224 13.743Z" fill="#5271FF"/>
<path d="M21.26 9.48812C23.8996 9.48812 26.0395 7.36413 26.0395 4.74406C26.0395 2.12399 23.8996 0 21.26 0C18.6203 0 16.4805 2.12399 16.4805 4.74406C16.4805 7.36413 18.6203 9.48812 21.26 9.48812Z" fill="#5271FF"/>
<path d="M47.6905 20.551H41.3033L40.3414 23.4142H36.9297L42.5394 7.50781H46.4544L52.0865 23.4142H48.6524L47.6905 20.551ZM46.7061 17.6198L44.5081 11.1205L42.3101 17.6198H46.7061Z" fill="white"/>
<path d="M64.8136 7.50912V23.4155H61.8605V22.0748C61.0369 23.1199 59.8233 23.7334 58.1524 23.7334C55.0846 23.7334 52.5664 21.12 52.5664 17.7336C52.5664 14.3473 55.0846 11.7352 58.1524 11.7352C59.8233 11.7352 61.0369 12.3487 61.8605 13.3937V7.50781H64.8136V7.50912ZM61.8605 17.7349C61.8605 15.8266 60.5098 14.5304 58.7019 14.5304C56.8939 14.5304 55.5195 15.8253 55.5195 17.7349C55.5195 19.6446 56.8702 20.9395 58.7019 20.9395C60.5336 20.9395 61.8605 19.6446 61.8605 17.7349Z" fill="white"/>
<path d="M79.1704 12.06V23.4225H76.2173V22.0818C75.3937 23.1047 74.1563 23.7403 72.4854 23.7403C69.4401 23.7403 66.9219 21.127 66.9219 17.7406C66.9219 14.3542 69.4401 11.7422 72.4854 11.7422C74.1563 11.7422 75.3924 12.3779 76.2173 13.4007V12.06H79.1704ZM76.2173 17.7419C76.2173 15.8336 74.8666 14.5374 73.0349 14.5374C71.2033 14.5374 69.875 15.8323 69.875 17.7419C69.875 19.6516 71.2257 20.9465 73.0349 20.9465C74.8442 20.9465 76.2173 19.6516 76.2173 17.7419Z" fill="white"/>
<path d="M94.0949 17.7393C94.0949 21.1257 91.5766 23.739 88.5089 23.739C86.838 23.739 85.6243 23.1256 84.8008 22.0805V27.9664H81.8477V12.06H84.8008V13.4007C85.6243 12.3556 86.838 11.7422 88.5089 11.7422C91.5766 11.7422 94.0949 14.3555 94.0949 17.7406V17.7393ZM91.1418 17.7393C91.1418 15.8309 89.7911 14.5347 87.9594 14.5347C86.1277 14.5347 84.8008 15.8296 84.8008 17.7393C84.8008 19.649 86.1514 20.9439 87.9594 20.9439C89.7674 20.9439 91.1418 19.649 91.1418 17.7393Z" fill="white"/>
<path d="M99.8895 14.8734V19.6005C99.8895 20.8274 100.782 20.8496 102.476 20.7594V23.4185C98.3319 23.8724 96.9364 22.669 96.9364 19.6005V14.8734H94.9453V12.056H96.9364V9.76051L99.8895 8.875V12.056H102.476V14.8734H99.8895Z" fill="white"/>
<path d="M115.526 12.0547L111.176 23.4172H107.811L103.461 12.0547H106.712L109.482 20.0085L112.274 12.0547H115.525H115.526Z" fill="white"/>
<path d="M127.447 7.45312V8.95077H122.532V23.3386H120.931V8.95077H116.016V7.45312H127.447Z" fill="white"/>
<path d="M128.958 13.8622C129.659 12.4862 130.864 11.7969 132.57 11.7969V13.2487C131.533 13.2487 130.672 13.5522 129.987 14.1565C129.302 14.7621 128.958 15.7143 128.958 17.0157V23.3241H127.449V11.9774H128.958V13.8609V13.8622Z" fill="white"/>
<path d="M143.314 11.9765H144.823V23.3233H143.314V21.0997C142.262 22.7648 140.723 23.5953 138.695 23.5953C137.064 23.5953 135.674 23.0211 134.523 21.8701C133.373 20.7204 132.797 19.313 132.797 17.6492C132.797 15.9855 133.371 14.5781 134.523 13.4284C135.674 12.2786 137.065 11.7031 138.695 11.7031C140.722 11.7031 142.262 12.535 143.314 14.1988V11.9752V11.9765ZM135.609 20.8381C136.477 21.7079 137.545 22.1435 138.81 22.1435C140.075 22.1435 141.142 21.7092 142.011 20.8381C142.879 19.9683 143.314 18.9062 143.314 17.6492C143.314 16.3923 142.879 15.3315 142.011 14.4604C141.142 13.5905 140.075 13.155 138.81 13.155C137.545 13.155 136.477 13.5905 135.609 14.4604C134.741 15.3302 134.306 16.3936 134.306 17.6492C134.306 18.9049 134.741 19.9683 135.609 20.8381Z" fill="white"/>
<path d="M149.098 9.2597C148.884 9.47159 148.625 9.57754 148.32 9.57754C148.016 9.57754 147.756 9.47159 147.543 9.2597C147.329 9.04781 147.223 8.79144 147.223 8.48799C147.223 8.18454 147.329 7.92817 147.543 7.71628C147.756 7.50438 148.015 7.39844 148.32 7.39844C148.626 7.39844 148.884 7.50438 149.098 7.71628C149.311 7.92817 149.418 8.18584 149.418 8.48799C149.418 8.79013 149.311 9.04781 149.098 9.2597ZM147.567 23.3297V11.9829H149.075V23.3297H147.567Z" fill="white"/>
<path d="M157.17 11.7031C158.557 11.7031 159.65 12.123 160.452 12.9627C161.251 13.8024 161.652 14.9338 161.652 16.3556V23.322H160.143V16.3556C160.143 15.3419 159.872 14.5558 159.332 13.996C158.79 13.4362 158.024 13.1563 157.033 13.1563C155.936 13.1563 155.045 13.5003 154.358 14.1883C153.673 14.8763 153.329 15.9397 153.329 17.3772V23.3233H151.82V11.9765H153.329V13.7462C154.183 12.3846 155.463 11.7044 157.17 11.7044V11.7031Z" fill="white"/>
<path d="M165.649 9.2597C165.435 9.47159 165.176 9.57754 164.871 9.57754C164.567 9.57754 164.307 9.47159 164.094 9.2597C163.88 9.04781 163.773 8.79144 163.773 8.48799C163.773 8.18454 163.88 7.92817 164.094 7.71628C164.307 7.50438 164.565 7.39844 164.871 7.39844C165.177 7.39844 165.435 7.50438 165.649 7.71628C165.862 7.92817 165.969 8.18584 165.969 8.48799C165.969 8.79013 165.862 9.04781 165.649 9.2597ZM164.117 23.3297V11.9829H165.626V23.3297H164.117Z" fill="white"/>
<path d="M173.725 11.7031C175.111 11.7031 176.205 12.123 177.006 12.9627C177.806 13.8024 178.207 14.9338 178.207 16.3556V23.322H176.698V16.3556C176.698 15.3419 176.426 14.5558 175.886 13.996C175.345 13.4362 174.579 13.1563 173.588 13.1563C172.49 13.1563 171.6 13.5003 170.913 14.1883C170.228 14.8763 169.884 15.9397 169.884 17.3772V23.3233H168.375V11.9765H169.884V13.7462C170.738 12.3846 172.017 11.7044 173.725 11.7044V11.7031Z" fill="white"/>
<path d="M190.501 11.9765H192.01V22.8694C192.01 24.5031 191.446 25.7888 190.318 26.7266C189.19 27.6645 187.841 28.134 186.271 28.134C183.588 28.134 181.782 27.2106 180.853 25.365L182.178 24.6156C182.864 25.9916 184.229 26.6809 186.271 26.6809C187.583 26.6809 188.614 26.3369 189.369 25.6489C190.124 24.9609 190.501 24.0335 190.501 22.8694V21.0997C189.45 22.7648 187.911 23.5953 185.883 23.5953C184.251 23.5953 182.861 23.0211 181.711 21.8701C180.56 20.7204 179.984 19.313 179.984 17.6492C179.984 15.9855 180.559 14.5781 181.711 13.4284C182.861 12.2786 184.253 11.7031 185.883 11.7031C187.909 11.7031 189.45 12.535 190.501 14.1988V11.9752V11.9765ZM182.796 20.8381C183.665 21.7079 184.732 22.1435 185.997 22.1435C187.262 22.1435 188.33 21.7092 189.198 20.8381C190.067 19.9683 190.501 18.9062 190.501 17.6492C190.501 16.3922 190.067 15.3315 189.198 14.4604C188.33 13.5905 187.262 13.155 185.997 13.155C184.732 13.155 183.665 13.5905 182.796 14.4604C181.928 15.3302 181.493 16.3936 181.493 17.6492C181.493 18.9049 181.928 19.9683 182.796 20.8381Z" fill="white"/>
</g>
<defs>
<clipPath id="clip0_8303_1375">
<rect width="192.01" height="31.2324" fill="white"/>
</clipPath>
</defs>
</svg>
